<?xml version="1.0" standalone="no"?>
<!DOCTYPE svg PUBLIC "-//W3C//DTD SVG 20010904//EN"
 "http://www.w3.org/TR/2001/REC-SVG-20010904/DTD/svg10.dtd">
<svg version="1.0" xmlns="http://www.w3.org/2000/svg"
 width="718.000000pt" height="718.000000pt" viewBox="0 0 718.000000 718.000000"
 preserveAspectRatio="xMidYMid meet">
<metadata>
Created by potrace 1.11, written by Peter Selinger 2001-2013
</metadata>
<g transform="translate(0.000000,718.000000) scale(0.100000,-0.100000)"
fill="#000000" stroke="none">
<path d="M2535 6902 c-11 -2 -27 -6 -35 -9 -8 -3 -24 -8 -35 -10 -11 -2 -21
-8 -23 -13 -2 -5 -9 -7 -17 -4 -7 3 -23 -4 -34 -15 -12 -12 -24 -20 -27 -20
-12 3 -105 -83 -115 -105 -5 -11 -18 -33 -30 -47 -11 -14 -21 -32 -22 -40 -2
-8 -6 -19 -9 -25 -27 -43 -31 -203 -6 -282 10 -34 23 -62 28 -62 6 0 9 -3 8
-7 -3 -13 32 -73 42 -73 6 0 10 -6 10 -13 0 -7 8 -19 18 -27 51 -43 90 -68 96
-63 3 4 6 1 6 -5 0 -23 112 -54 200 -55 98 0 130 4 130 16 0 4 4 6 9 2 9 -5
59 13 71 25 7 7 40 9 37 1 -1 -3 27 -51 63 -106 35 -55 69 -108 75 -117 5 -10
33 -50 60 -90 28 -40 53 -80 57 -90 4 -10 12 -18 18 -18 6 0 9 -4 5 -9 -3 -5
-1 -13 5 -16 7 -4 2 -14 -12 -27 -13 -11 -22 -24 -21 -29 2 -5 -2 -9 -8 -9 -5
0 -22 -26 -37 -57 -21 -47 -26 -73 -25 -133 0 -41 6 -88 13 -105 7 -16 14 -34
14 -38 1 -4 8 -12 16 -17 8 -5 11 -10 5 -10 -5 0 -1 -7 9 -15 11 -8 16 -15 12
-15 -13 0 48 -52 92 -77 24 -14 55 -27 69 -29 14 -1 29 -7 32 -12 9 -14 6
-631 -3 -640 -4 -4 -11 -7 -14 -7 -19 -2 -82 -30 -82 -38 0 -4 -4 -6 -8 -3 -5
3 -19 -4 -31 -15 -22 -20 -23 -20 -43 -2 -60 53 -133 138 -130 152 8 54 7 69
-7 94 -16 28 -41 48 -71 54 -35 9 -75 3 -86 -11 -6 -9 -14 -13 -17 -10 -3 3
-10 -3 -16 -14 -6 -11 -7 -22 -4 -26 3 -3 1 -6 -5 -6 -16 0 -15 -59 0 -92 20
-42 62 -61 118 -55 37 4 50 2 54 -9 3 -8 13 -14 21 -14 9 0 14 -3 12 -7 -5
-10 50 -63 57 -55 3 3 6 0 6 -6 0 -17 37 -52 46 -44 3 4 2 -3 -4 -14 -6 -12
-8 -24 -5 -28 3 -3 1 -6 -6 -6 -10 0 -30 -36 -35 -65 -1 -5 -4 -14 -7 -20 -4
-5 -6 -38 -5 -72 1 -54 -2 -63 -19 -69 -11 -3 -22 -7 -25 -8 -3 -1 -21 -6 -40
-10 -19 -5 -39 -11 -45 -15 -5 -3 -13 -6 -17 -7 -5 -1 -9 -2 -10 -3 -2 -2 -14
-4 -27 -7 -14 -2 -45 -11 -70 -20 -59 -20 -92 -26 -89 -17 9 42 -109 333 -135
333 -6 0 -8 3 -4 6 6 6 -30 61 -63 95 -8 9 -23 28 -34 43 -10 14 -23 23 -29
19 -5 -3 -8 -2 -5 3 3 5 -6 20 -20 34 -13 14 -21 19 -17 11 5 -9 4 -12 -3 -7
-7 4 -12 14 -12 22 0 8 -4 14 -8 14 -4 0 -8 237 -9 528 -2 514 -9 642 -36 642
-4 0 -6 4 -3 9 4 5 1 22 -5 38 -7 15 -13 33 -14 38 -3 12 -48 128 -66 170 -7
17 -13 32 -13 35 -7 30 -50 60 -86 60 -31 0 -81 -32 -75 -48 2 -7 0 -10 -5 -7
-6 3 -10 -1 -10 -10 0 -9 -9 -34 -20 -55 -11 -22 -18 -40 -15 -40 3 0 -4 -18
-15 -40 -11 -22 -18 -40 -14 -40 4 0 2 -6 -4 -12 -9 -11 -29 -75 -33 -103 0
-5 -5 -17 -10 -26 -15 -30 -18 -107 -20 -525 -2 -446 2 -419 -54 -401 -20 7
-20 16 -21 409 -1 444 -2 471 -20 509 -7 15 -11 29 -8 32 3 3 0 16 -7 29 -7
12 -12 27 -11 31 1 4 -7 26 -18 49 -11 23 -20 48 -20 55 0 7 -4 21 -9 31 -18
35 -34 77 -33 85 1 4 -3 7 -8 7 -5 0 -9 3 -8 8 3 13 -14 42 -22 37 -4 -3 -10
2 -14 10 -3 10 -19 15 -42 15 -27 0 -43 -7 -65 -31 -16 -17 -27 -35 -24 -39 3
-5 -2 -15 -10 -23 -8 -9 -15 -19 -15 -23 0 -3 -18 -56 -40 -116 -22 -60 -38
-113 -35 -118 3 -4 1 -10 -4 -12 -6 -1 -11 -14 -13 -28 -2 -14 -6 -29 -9 -35
-4 -5 -7 -217 -8 -469 -1 -253 -6 -466 -10 -474 -4 -7 -12 -14 -17 -14 -14 0
-96 -39 -125 -59 -51 -35 -52 -33 -53 92 -1 90 1 116 11 112 7 -3 16 2 19 11
3 9 10 14 14 11 4 -3 15 6 24 20 9 14 14 25 10 25 -4 0 -2 6 3 13 5 6 9 104 8
219 -1 193 -3 210 -21 235 -29 39 -75 51 -184 48 -168 -5 -226 -33 -216 -106
3 -22 10 -48 16 -58 14 -26 81 -81 92 -75 10 7 10 10 12 -136 2 -140 13 -174
61 -199 l30 -15 0 -172 c0 -95 -2 -171 -4 -169 -4 5 -36 -26 -35 -34 0 -3 -10
-14 -22 -23 -42 -34 -136 -194 -171 -293 -6 -16 -15 -39 -19 -50 -9 -24 -8
-22 -17 -60 -24 -100 -31 -318 -12 -382 7 -23 11 -44 8 -47 -4 -4 16 -74 34
-116 3 -8 7 -22 9 -31 8 -40 104 -205 150 -259 54 -63 174 -175 174 -163 0 5
5 0 11 -10 6 -9 14 -15 19 -12 4 3 10 -1 13 -8 3 -6 22 -21 43 -32 22 -10 46
-25 55 -32 8 -7 24 -14 35 -16 10 -2 35 -11 55 -20 20 -9 74 -26 120 -39 122
-32 337 -32 464 1 50 13 93 28 96 33 3 5 9 9 13 9 17 -3 56 12 56 22 0 6 3 8
6 4 8 -8 115 50 132 71 6 9 12 12 12 8 0 -9 31 12 75 53 19 17 38 31 42 31 8
0 23 -13 146 -123 32 -29 63 -51 68 -50 5 2 8 -1 6 -5 -3 -12 210 -199 223
-195 12 4 -6 -75 -24 -102 -9 -14 -14 -25 -11 -25 4 0 -1 -7 -9 -16 -9 -8 -14
-19 -11 -24 3 -5 0 -10 -5 -12 -6 -2 -13 -10 -15 -18 -9 -40 -18 -60 -28 -60
-6 0 -8 -3 -5 -6 3 -3 -5 -32 -18 -66 -13 -33 -23 -63 -22 -67 1 -3 -4 -18
-10 -32 -5 -14 -13 -39 -16 -55 -2 -16 -7 -39 -10 -50 -2 -12 -7 -38 -10 -58
-3 -20 -16 -48 -29 -62 l-23 -24 -822 3 -822 3 0 -48 c0 -48 6 -56 42 -62 7
-1 18 -4 23 -7 14 -9 208 -74 220 -74 6 -1 19 -6 30 -12 11 -5 34 -14 50 -18
45 -12 41 -11 165 -55 63 -23 120 -43 125 -44 11 -3 29 -10 60 -22 11 -4 26
-8 34 -8 8 -1 16 -6 18 -12 3 -9 -111 -11 -427 -10 l-430 1 -11 34 c-7 19 -16
40 -20 45 -5 6 -20 26 -35 43 -28 35 -72 70 -95 75 -8 2 -16 6 -19 10 -3 4
-15 9 -25 11 -11 1 -25 5 -30 9 -31 19 -215 -10 -215 -33 0 -6 -4 -8 -9 -5
-18 11 -119 -83 -104 -98 3 -3 1 -6 -6 -6 -21 0 -53 -91 -53 -155 -1 -74 8
-129 22 -133 6 -2 8 -8 4 -13 -3 -5 0 -9 6 -9 6 0 8 -5 5 -10 -4 -6 11 -27 32
-47 21 -20 31 -33 23 -27 -9 5 -2 -3 14 -18 17 -14 34 -24 38 -22 5 3 8 1 8
-4 0 -11 45 -33 80 -39 58 -10 124 -14 139 -7 9 4 20 6 24 5 17 -3 107 44 107
57 0 7 4 11 9 8 10 -7 72 59 64 68 -4 3 -1 6 5 6 12 0 52 100 52 133 l0 22
603 -2 604 -1 2 49 c1 28 -3 49 -9 49 -5 0 -12 0 -15 0 -3 0 -19 7 -35 15 -16
8 -32 15 -35 15 -3 0 -7 1 -10 1 -3 1 -9 3 -15 4 -5 1 -12 4 -15 5 -3 1 -8 3
-12 5 -5 1 -15 4 -23 8 -8 3 -49 17 -90 31 -41 13 -122 41 -180 61 -58 20
-109 38 -115 39 -12 3 -41 14 -73 27 -13 5 -27 7 -32 4 -5 -3 -11 -1 -14 4 -4
5 -29 17 -56 26 -28 9 -48 20 -46 23 4 7 1134 8 1258 1 31 -1 55 -6 52 -11 -3
-4 -2 -8 3 -8 4 0 8 -30 8 -68 0 -37 1 -71 4 -76 2 -5 5 -27 7 -50 6 -84 40
-237 77 -341 14 -38 28 -90 31 -115 3 -25 5 -47 5 -48 1 -2 20 -23 44 -47 23
-23 58 -68 77 -99 19 -31 38 -56 43 -56 4 0 7 -4 7 -10 0 -9 18 -35 50 -69 8
-9 30 -34 47 -54 55 -63 175 -167 186 -160 6 3 7 1 3 -5 -4 -7 -2 -12 3 -12 6
0 11 -9 11 -20 0 -11 4 -20 9 -20 5 0 11 -9 14 -19 7 -29 53 -54 105 -58 70
-5 72 -6 72 -14 0 -8 28 -19 44 -18 5 0 12 -3 15 -8 6 -10 119 -58 136 -58 6
-1 20 -7 33 -13 12 -7 27 -10 32 -7 6 3 10 1 10 -4 0 -6 3 -10 8 -9 4 1 39 -5
77 -14 119 -28 164 -32 330 -32 155 0 217 5 300 25 22 6 47 11 55 13 33 5 106
27 122 36 10 6 23 10 29 10 5 0 35 11 65 25 30 14 57 25 62 25 4 1 25 11 47
24 22 13 48 22 58 20 47 -7 120 38 131 81 3 12 23 35 43 50 21 16 57 48 81 71
23 23 42 40 42 37 0 -2 11 9 25 24 13 15 35 39 48 53 48 51 97 117 90 123 -3
4 -2 7 4 7 10 0 93 123 93 138 0 3 12 18 26 33 14 15 27 40 29 56 1 15 8 42
16 58 7 17 13 35 14 40 0 6 6 20 13 32 7 12 13 30 15 40 2 10 11 43 20 73 29
97 45 219 49 365 1 44 6 83 10 86 25 17 8 130 -21 149 -5 3 -12 23 -15 45 -13
83 -19 105 -27 111 -5 3 -7 9 -4 14 6 9 -42 148 -57 167 -6 7 -8 13 -4 13 9 0
-54 123 -68 132 -6 4 -7 8 -3 8 5 0 0 15 -11 33 -11 17 -22 51 -26 74 -5 37
-2 48 26 88 17 25 36 45 41 45 4 0 5 5 2 10 -3 5 -3 10 2 10 4 0 22 21 38 45
17 25 33 45 38 45 4 0 7 4 7 10 0 5 9 20 20 32 10 13 21 27 22 33 2 5 18 25
36 45 17 19 35 43 38 53 3 9 10 17 15 17 6 0 7 5 4 10 -3 5 -1 10 5 10 6 0 15
11 21 24 11 23 49 43 49 26 0 -6 50 -32 70 -36 3 0 19 -6 35 -13 43 -18 131
-40 190 -48 71 -10 254 -7 295 4 34 10 36 9 38 -15 1 -14 5 -28 10 -31 4 -3 8
-15 10 -26 2 -11 19 -71 38 -134 19 -62 34 -120 34 -127 0 -8 4 -14 8 -14 5 0
9 -6 10 -12 1 -20 10 -55 28 -117 10 -31 17 -59 16 -63 -1 -5 2 -8 6 -8 5 0 9
-6 9 -13 0 -7 3 -24 6 -38 6 -23 1 -30 -33 -54 -22 -15 -38 -30 -35 -33 3 -3
-3 -11 -13 -18 -9 -6 -28 -32 -40 -57 -71 -142 -31 -304 100 -406 10 -7 43
-24 75 -36 l58 -24 0 -255 c0 -140 -3 -252 -7 -250 -3 2 -9 0 -13 -6 -4 -6
-11 -8 -16 -4 -5 3 -16 0 -24 -6 -8 -7 -15 -9 -15 -6 0 4 -15 -3 -32 -15 -47
-32 -100 -79 -91 -79 4 0 3 -4 -2 -8 -15 -10 -44 -59 -49 -79 -1 -10 -6 -25
-10 -33 -9 -22 -11 -99 -3 -143 9 -46 44 -117 58 -117 6 0 8 -4 5 -9 -6 -9 81
-90 87 -81 2 3 12 -3 22 -13 9 -10 23 -16 31 -13 7 3 14 0 17 -7 4 -14 152
-17 182 -3 11 5 25 10 31 11 6 2 29 14 51 28 34 21 54 42 101 102 25 32 44
106 44 171 0 76 -27 149 -77 206 -29 34 -115 89 -126 82 -5 -3 -9 0 -9 6 0 7
-6 10 -14 7 -34 -13 -40 19 -41 261 0 130 1 243 3 250 2 6 9 12 16 12 6 0 36
12 66 26 111 51 186 170 183 290 -1 58 -29 154 -44 154 -6 0 -7 5 -4 10 3 6 1
10 -4 10 -6 0 -11 5 -11 12 0 18 -62 70 -116 98 -37 19 -69 26 -131 28 -46 2
-81 8 -78 12 3 4 0 23 -6 41 -11 36 -15 48 -19 64 -1 6 -7 21 -12 35 -5 14
-12 34 -14 45 -3 11 -7 25 -8 30 -2 6 -7 25 -11 43 -4 17 -11 32 -15 32 -4 0
-7 6 -7 13 2 25 -16 87 -25 87 -5 0 -7 4 -4 8 3 5 -2 31 -10 58 -9 27 -17 54
-18 59 -1 6 -8 27 -15 49 -14 40 -6 55 27 56 6 0 12 5 12 11 0 5 4 7 10 4 10
-6 60 18 94 45 10 8 21 14 25 12 20 -8 225 153 215 170 -3 4 -1 7 4 6 19 -6
115 121 157 207 11 22 25 43 30 47 6 4 6 8 1 8 -5 0 -4 6 2 13 15 19 61 171
68 230 17 130 5 331 -23 407 -3 8 -7 20 -9 27 -8 38 -29 91 -43 107 -13 16
-13 18 -1 11 11 -6 10 -3 -2 12 -10 11 -18 23 -18 28 0 34 -201 285 -229 285
-5 0 -12 7 -15 16 -4 9 -9 15 -12 12 -2 -3 -19 8 -35 23 -17 16 -37 29 -45 29
-8 0 -14 5 -14 12 0 6 -3 8 -7 5 -3 -4 -11 0 -17 9 -6 8 -18 16 -26 18 -8 2
-42 15 -74 30 -33 15 -95 37 -138 48 l-78 21 3 246 2 246 76 0 77 -1 -1 207
-1 207 -195 -1 c-108 0 -200 -2 -206 -4 -5 -2 -10 -36 -10 -77 l1 -73 -334 0
-334 -1 -16 37 c-9 20 -20 38 -25 39 -4 2 -5 7 -2 12 3 4 -15 29 -40 54 -44
45 -115 85 -152 85 -10 0 -27 1 -38 4 -54 11 -205 -49 -205 -81 0 -7 -4 -11
-8 -8 -8 5 -46 -52 -68 -104 -11 -26 -11 -125 0 -174 4 -16 15 -36 24 -44 11
-9 12 -11 2 -6 -12 6 -12 4 1 -12 53 -64 73 -83 80 -78 5 3 9 1 9 -4 0 -5 19
-18 42 -28 50 -22 199 -27 206 -6 2 7 8 10 13 6 5 -3 9 0 9 6 0 6 4 9 8 6 12
-7 93 54 86 65 -3 5 0 9 5 9 14 0 62 96 56 112 -4 11 58 13 332 11 186 -1 341
-2 345 -2 3 -1 6 -33 4 -72 -1 -39 3 -74 9 -78 5 -4 40 -7 78 -6 37 0 67 -2
68 -5 1 -7 1 -418 0 -451 -1 -25 -4 -26 -53 -26 -58 1 -186 -11 -198 -18 -4
-2 -21 -7 -39 -10 -50 -9 -155 -47 -163 -59 -4 -6 -8 -7 -8 -2 0 4 -10 2 -22
-6 -26 -17 -66 -32 -56 -22 7 7 -47 93 -66 106 -6 4 -7 8 -2 8 5 0 1 9 -8 19
-15 16 -16 23 -5 42 17 33 23 89 9 89 -6 0 -9 4 -5 10 8 13 -25 50 -58 64 -64
28 -146 -19 -152 -88 -7 -74 39 -126 112 -126 33 0 43 -4 48 -20 3 -11 12 -26
18 -33 58 -62 70 -101 41 -126 -13 -11 -24 -18 -24 -15 0 3 -16 -8 -36 -25
-26 -23 -39 -29 -48 -22 -7 6 -16 7 -20 3 -4 -4 -6 0 -4 8 2 8 -3 14 -9 13 -7
-2 -12 3 -10 10 1 6 -4 11 -10 10 -7 -2 -13 2 -13 9 0 6 -16 26 -35 44 -29 26
-34 36 -27 55 13 42 -2 109 -25 109 -8 0 -12 4 -9 9 7 10 -42 33 -55 26 -5 -4
-9 -1 -9 5 0 6 -4 8 -10 5 -5 -3 -19 -8 -30 -10 -21 -4 -71 -35 -57 -35 5 0 1
-7 -7 -16 -9 -8 -14 -19 -12 -22 2 -4 -41 -7 -96 -6 l-99 1 -27 37 c-14 21
-31 35 -39 32 -7 -3 -13 0 -13 6 0 7 -16 9 -47 5 -83 -9 -122 -82 -88 -164 8
-18 17 -33 20 -33 3 0 3 6 0 13 -4 6 2 2 12 -11 38 -46 149 -21 168 38 6 18
16 20 106 20 54 0 99 -4 99 -8 0 -14 55 -65 73 -69 10 -2 25 -5 35 -7 9 -2 27
0 38 5 18 6 34 -4 92 -62 69 -68 79 -90 46 -103 -9 -3 -13 -10 -10 -15 3 -5 0
-11 -8 -14 -14 -6 -96 -119 -96 -132 0 -4 -9 -18 -20 -32 -11 -14 -17 -29 -14
-34 3 -5 1 -9 -4 -9 -8 0 -21 -31 -23 -57 0 -5 -4 -12 -9 -18 -11 -14 -41
-117 -35 -123 2 -3 0 -13 -5 -23 -11 -19 -20 -101 -22 -182 -1 -77 11 -170 33
-245 11 -37 21 -75 24 -84 2 -9 21 -52 42 -94 54 -109 57 -114 65 -114 5 0 8
-5 8 -12 0 -6 15 -25 33 -41 17 -17 25 -26 17 -22 -23 12 120 -127 163 -160
29 -22 35 -30 26 -41 -6 -8 -9 -14 -6 -14 3 0 -8 -13 -24 -30 -18 -18 -27 -35
-23 -42 4 -7 4 -10 -1 -6 -4 4 -26 -18 -48 -50 -23 -31 -47 -61 -54 -65 -7 -4
-13 -15 -13 -22 0 -8 -4 -15 -10 -15 -5 0 -10 -6 -10 -14 0 -8 -3 -16 -8 -18
-9 -4 -102 -126 -102 -134 0 -3 -7 -13 -16 -22 -15 -15 -22 -11 -86 58 -38 41
-73 75 -78 75 -4 0 -12 4 -17 9 -5 6 -2 6 7 1 13 -8 13 -6 1 8 -7 9 -17 14
-22 11 -5 -3 -9 1 -9 8 -1 12 -89 86 -97 81 -1 -2 -14 9 -27 22 -14 14 -32 25
-41 25 -8 0 -15 4 -15 9 0 5 -8 12 -18 15 -10 4 -37 24 -60 46 -38 37 -62 45
-108 39 -4 0 -10 3 -13 8 -7 9 -69 34 -88 36 -7 0 -13 4 -13 9 0 4 -5 8 -12 8
-7 0 -38 8 -70 17 l-58 17 0 1253 c0 837 3 1254 10 1258 6 4 8 11 5 16 -4 5 2
9 11 9 10 0 14 3 11 7 -4 3 -1 11 7 17 25 20 33 70 29 186 -4 137 -4 140 -15
140 -4 0 -8 7 -8 14 0 23 -67 68 -108 73 -34 4 -75 9 -95 12 -5 0 -5 6 -2 11
4 6 12 10 18 9 45 -5 45 -4 43 114 l-1 112 -111 0 -111 0 1 61 1 61 -152 0
-153 0 -1 -34 c0 -18 0 -62 0 -98 0 -36 0 -83 0 -105 l1 -40 53 0 53 0 -2 -42
c-1 -24 -2 -46 -3 -50 -1 -4 -18 -7 -38 -6 -79 1 -102 -3 -119 -19 -10 -10
-20 -17 -23 -17 -13 3 -30 -9 -25 -17 3 -5 0 -9 -5 -9 -6 0 -17 -15 -24 -32
-16 -39 -17 -285 -2 -296 6 -4 11 -14 13 -22 2 -8 9 -21 15 -29 9 -11 12 -329
12 -1278 1 -1206 0 -1263 -17 -1263 -10 0 -18 -4 -18 -9 0 -4 -8 -8 -17 -8
-27 1 -103 -25 -103 -35 0 -5 -4 -6 -10 -3 -5 3 -23 -1 -39 -9 -16 -9 -38 -14
-49 -11 -53 10 -101 -19 -151 -93 -8 -12 -18 -19 -22 -16 -5 3 -17 -4 -29 -16
-11 -11 -23 -19 -26 -19 -3 1 -41 -26 -83 -60 -70 -55 -131 -115 -228 -225
-18 -20 -36 -36 -40 -36 -5 0 -29 19 -54 43 -25 23 -65 59 -90 79 -94 79 -181
154 -253 220 -23 21 -45 38 -49 38 -5 0 5 17 22 37 16 20 27 41 24 46 -3 6 -1
7 4 4 9 -6 22 10 23 28 0 3 9 14 20 25 12 12 18 25 15 30 -4 6 -2 10 3 10 10
0 38 60 34 73 -1 4 3 7 9 7 6 0 9 7 5 15 -3 8 -2 15 3 15 8 0 29 56 36 95 2
11 4 20 5 20 2 0 9 33 14 70 3 17 5 30 6 30 1 0 4 44 6 99 1 54 6 101 9 104 3
3 15 7 27 9 12 2 25 7 28 11 3 4 14 8 25 10 33 5 129 35 141 44 6 4 13 6 16 3
2 -3 29 3 60 14 l55 19 30 -34 c16 -19 28 -35 26 -37 -4 -5 59 -47 106 -71 23
-12 31 -14 25 -4 -6 10 -4 10 9 -1 20 -16 119 -22 162 -9 17 5 36 10 43 12 7
1 21 10 32 18 10 9 21 14 24 11 2 -3 25 15 49 41 45 46 92 130 82 146 -3 5 -1
11 5 15 26 16 6 156 -35 235 -17 32 -105 111 -117 104 -4 -3 -8 -1 -8 5 0 5
-22 17 -50 26 l-49 16 0 317 c1 304 5 352 30 336 5 -3 15 -2 22 3 6 4 18 8 25
9 30 5 123 87 143 127 12 23 22 44 21 47 0 3 4 11 10 18 6 6 7 12 3 12 -4 0
-3 6 3 13 19 22 8 156 -16 210 -13 26 -28 47 -34 47 -6 0 -8 3 -4 7 8 8 -53
73 -70 73 -7 0 -14 5 -16 11 -2 5 -10 11 -18 13 -8 1 -26 8 -40 16 -23 13
-159 19 -214 8 -12 -2 -24 5 -30 17 -20 37 -100 150 -115 163 -13 11 -13 12
-1 6 14 -7 -14 33 -33 47 -5 3 -8 10 -7 14 1 4 -7 18 -19 31 -11 13 -18 24
-16 24 6 0 -1 10 -35 49 -8 10 -16 24 -18 32 -2 8 -8 16 -13 17 -5 2 -9 10 -9
18 0 9 -4 13 -8 10 -20 -12 -9 44 13 68 14 15 25 29 25 32 0 3 7 12 15 21 8 8
13 19 10 24 -4 5 -2 9 3 9 21 0 51 105 56 200 3 46 -22 156 -45 200 -32 62
-37 65 -37 29 0 -19 -3 -45 -7 -59 -4 -14 -7 -30 -7 -37 -1 -7 -7 -14 -15 -17
-7 -3 -13 -12 -13 -20 0 -8 -5 -18 -12 -22 -7 -5 -8 -3 -3 6 5 8 -5 4 -22 -8
-17 -12 -33 -19 -37 -15 -3 3 -6 2 -6 -3 0 -13 -89 -8 -105 6 -8 7 -19 9 -25
5 -5 -3 -10 -3 -10 2 0 4 -12 22 -28 38 -15 17 -28 39 -30 50 -13 81 -3 139
29 174 10 10 16 22 13 25 -2 3 -1 4 3 1 3 -3 13 1 21 7 7 7 21 13 30 15 48 8
88 28 46 22 -4 0 -10 4 -13 10 -4 5 -18 12 -31 15 -14 3 -36 8 -50 11 -30 8
-127 12 -155 7z"/>
</g>
</svg>
